<svg xmlns="http://www.w3.org/2000/svg" viewBox="0 0 280 55.62">
  <g id="Ebene_2" data-name="Ebene 2">
    <g id="Ebene_1-2" data-name="Ebene 1">
      <g>
        <g>
          <path d="M70.85,21.14a4.33,4.33,0,0,1,.3-1.6A4.15,4.15,0,0,1,72,18.23a3.66,3.66,0,0,1,1.32-.89A4.33,4.33,0,0,1,75,17a4.52,4.52,0,0,1,2.25.56v1.14a4,4,0,0,0-1.05-.53A3.61,3.61,0,0,0,75,18a3.21,3.21,0,0,0-1.61.41,3,3,0,0,0-1.1,1.13,3.3,3.3,0,0,0-.39,1.6,3.19,3.19,0,0,0,.4,1.6,2.9,2.9,0,0,0,1.12,1.13,3.39,3.39,0,0,0,1.67.41,3.59,3.59,0,0,0,2.29-.8v1.16a4,4,0,0,1-1.09.46,5.3,5.3,0,0,1-1.26.15,4.43,4.43,0,0,1-1.67-.31A3.94,3.94,0,0,1,72,24.07a4.15,4.15,0,0,1-.86-1.3A4.23,4.23,0,0,1,70.85,21.14Z" style="fill: #003c8b"/>
          <path d="M79,21.14a4.33,4.33,0,0,1,.3-1.6,4,4,0,0,1,.84-1.31,3.66,3.66,0,0,1,1.32-.89,4.33,4.33,0,0,1,1.7-.33,4.52,4.52,0,0,1,2.25.56v1.14a3.9,3.9,0,0,0-1.06-.53,3.52,3.52,0,0,0-1.2-.2,3.21,3.21,0,0,0-1.61.41,3,3,0,0,0-1.1,1.13,3.48,3.48,0,0,0,0,3.2,3,3,0,0,0,1.13,1.13,3.38,3.38,0,0,0,1.66.41,3.6,3.6,0,0,0,2.3-.8v1.16a4,4,0,0,1-1.09.46,5.36,5.36,0,0,1-1.26.15,4.44,4.44,0,0,1-1.68-.31,3.9,3.9,0,0,1-1.32-.85,4,4,0,0,1-.86-1.3A4.23,4.23,0,0,1,79,21.14Z" style="fill: #003c8b"/>
          <path d="M86.79,25.11l3.29-8h1l3.29,8H93.25l-.89-2.23h-3.6l-.9,2.23Zm3-4.76L89.12,22H92l-.65-1.66c-.3-.76-.55-1.41-.76-2h0Q90.34,19,89.78,20.35Z" style="fill: #003c8b"/>
          <path d="M99,21.53v-.8h4.32v.8Z" style="fill: #003c8b"/>
          <path d="M108.32,21.14a4.33,4.33,0,0,1,.3-1.6,4,4,0,0,1,.84-1.31,3.66,3.66,0,0,1,1.32-.89,4.33,4.33,0,0,1,1.7-.33,4.52,4.52,0,0,1,2.25.56v1.14a4,4,0,0,0-1-.53,3.61,3.61,0,0,0-1.21-.2,3.21,3.21,0,0,0-1.61.41,3,3,0,0,0-1.1,1.13,3.48,3.48,0,0,0,0,3.2,3,3,0,0,0,1.13,1.13,3.38,3.38,0,0,0,1.66.41,3.6,3.6,0,0,0,2.3-.8v1.16a4,4,0,0,1-1.09.46,5.3,5.3,0,0,1-1.26.15,4.48,4.48,0,0,1-1.68-.31,3.9,3.9,0,0,1-1.32-.85,4,4,0,0,1-.86-1.3A4.23,4.23,0,0,1,108.32,21.14Z" style="fill: #003c8b"/>
          <path d="M116.79,22.74a4.39,4.39,0,0,1,0-3.24,4,4,0,0,1,.85-1.3,3.67,3.67,0,0,1,1.29-.87,4,4,0,0,1,1.61-.32,4,4,0,0,1,2.06.54A3.8,3.8,0,0,1,124.06,19a4.37,4.37,0,0,1,0,4.17,3.78,3.78,0,0,1-1.46,1.48,4,4,0,0,1-2.06.54,4,4,0,0,1-1.61-.32,3.79,3.79,0,0,1-1.29-.86A4.06,4.06,0,0,1,116.79,22.74Zm.73-1.62a3.28,3.28,0,0,0,.39,1.59A2.73,2.73,0,0,0,119,23.84a2.93,2.93,0,0,0,1.55.42,2.9,2.9,0,0,0,1.54-.42,2.8,2.8,0,0,0,1.08-1.13,3.44,3.44,0,0,0,0-3.18,2.89,2.89,0,0,0-1.08-1.14,3,3,0,0,0-1.54-.41,3.07,3.07,0,0,0-1.21.24,3,3,0,0,0-1,.67,3,3,0,0,0-.63,1A3.4,3.4,0,0,0,117.52,21.12Z" style="fill: #003c8b"/>
          <path d="M130.42,22.94l-1.75-2.49-1.07-1.58h0c0,.63,0,1.21,0,1.73v4.5h-1v-8h1l2.84,4.06,2.83-4.06h1v8h-1v-4.5c0-.52,0-1.1,0-1.73h0c-.6.88-.95,1.41-1.08,1.58Z" style="fill: #003c8b"/>
          <path d="M136.72,25.11v-8h2.08a10.23,10.23,0,0,1,1.34.07,2.94,2.94,0,0,1,1,.35,2.12,2.12,0,0,1,1.16,2,2.36,2.36,0,0,1-.29,1.17,2.27,2.27,0,0,1-.79.81,2.66,2.66,0,0,1-1.09.37,11.11,11.11,0,0,1-1.56.09h-.83v3.15Zm1-4.07h1a8.73,8.73,0,0,0,1.18-.06,1.66,1.66,0,0,0,.72-.24,1.4,1.4,0,0,0-.1-2.41,2.14,2.14,0,0,0-.73-.21,10,10,0,0,0-1.08-.05h-1Z" style="fill: #003c8b"/>
          <path d="M144.23,25.11v-8h4.61v.94h-3.56V20.5h3.12v.92h-3.12v2.74h3.66v.95Z" style="fill: #003c8b"/>
          <path d="M153,25.11v-7H150.3v-.94h6.4v.94H154v7Z" style="fill: #003c8b"/>
          <path d="M158.47,25.11v-8h4.61v.94h-3.56V20.5h3.12v.92h-3.12v2.74h3.66v.95Z" style="fill: #003c8b"/>
          <path d="M166.22,25.11h-1v-8h1l3.34,4.43c.48.63.94,1.26,1.38,1.87l0,0c0-.92,0-1.68,0-2.27v-4h1v8h-1l-3.34-4.43q-.72-.95-1.38-1.86h0c0,.92,0,1.68,0,2.27Z" style="fill: #003c8b"/>
          <path d="M173.94,21.14a4.33,4.33,0,0,1,.3-1.6,4,4,0,0,1,.84-1.31,3.66,3.66,0,0,1,1.32-.89,4.33,4.33,0,0,1,1.7-.33,4.52,4.52,0,0,1,2.25.56v1.14a4,4,0,0,0-1-.53,3.61,3.61,0,0,0-1.21-.2,3.21,3.21,0,0,0-1.61.41,3,3,0,0,0-1.1,1.13,3.48,3.48,0,0,0,0,3.2,3,3,0,0,0,1.13,1.13,3.38,3.38,0,0,0,1.66.41,3.6,3.6,0,0,0,2.3-.8v1.16a4,4,0,0,1-1.09.46,5.36,5.36,0,0,1-1.26.15,4.44,4.44,0,0,1-1.68-.31,3.9,3.9,0,0,1-1.32-.85,4,4,0,0,1-.86-1.3A4.23,4.23,0,0,1,173.94,21.14Z" style="fill: #003c8b"/>
          <path d="M182.55,25.11v-8h4.61v.94h-3.57V20.5h3.13v.92h-3.13v2.74h3.66v.95Z" style="fill: #003c8b"/>
          <path d="M192.17,21.14a4.33,4.33,0,0,1,.3-1.6,4.12,4.12,0,0,1,.83-1.31,3.84,3.84,0,0,1,1.32-.89,4.37,4.37,0,0,1,1.7-.33,4.52,4.52,0,0,1,2.25.56v1.14a3.83,3.83,0,0,0-1-.53,3.53,3.53,0,0,0-1.21-.2,3.17,3.17,0,0,0-1.6.41,3,3,0,0,0-1.1,1.13,3.48,3.48,0,0,0,0,3.2,2.92,2.92,0,0,0,1.13,1.13,3.35,3.35,0,0,0,1.66.41,3.57,3.57,0,0,0,2.29-.8v1.16a3.85,3.85,0,0,1-1.09.46,5.28,5.28,0,0,1-1.25.15,4.44,4.44,0,0,1-1.68-.31,4,4,0,0,1-1.33-.85,4.15,4.15,0,0,1-.86-1.3A4.22,4.22,0,0,1,192.17,21.14Z" style="fill: #003c8b"/>
          <path d="M200.78,25.11v-8h4.6v.94h-3.56V20.5h3.12v.92h-3.12v2.74h3.66v.95Z" style="fill: #003c8b"/>
          <path d="M208.52,25.11h-1v-8h1l3.34,4.43c.48.63.94,1.26,1.38,1.87l0,0c0-.92,0-1.68,0-2.27v-4h1v8h-1l-3.34-4.43q-.72-.95-1.38-1.86h0c0,.92,0,1.68,0,2.27Z" style="fill: #003c8b"/>
          <path d="M218.69,25.11v-7H216v-.94h6.41v.94h-2.68v7Z" style="fill: #003c8b"/>
          <path d="M224.19,25.11v-8h2.16a9.15,9.15,0,0,1,1.26.07,2.72,2.72,0,0,1,1,.33,2.25,2.25,0,0,1,.81.75,2.08,2.08,0,0,1,.29,1.11,2.12,2.12,0,0,1-.28,1.1,2,2,0,0,1-.75.77,2.49,2.49,0,0,1-.91.34l2.55,3.51H229l-2.44-3.42h-1.36v3.42Zm1-4.28h1.36a2.62,2.62,0,0,0,1.56-.36,1.18,1.18,0,0,0,.48-1,1.21,1.21,0,0,0-.65-1.13,2.07,2.07,0,0,0-.69-.21,7,7,0,0,0-1-.06h-1Z" style="fill: #003c8b"/>
          <path d="M232,25.11v-8h4.61v.94H233V20.5h3.12v.92H233v2.74h3.66v.95Z" style="fill: #003c8b"/>
        </g>
        <polygon points="28.02 55.47 15.74 42.05 41.99 41.34 57.77 55.62 28.02 55.47" style="fill: #dedede"/>
        <g>
          <path d="M70.84,55.3V35.61h4.32v7.62h8.51V35.61H88V55.3H83.67V47H75.16v8.3Z" style="fill: #003c8b"/>
          <path d="M96.54,55.3V39.4H90.19V35.61h17V39.4h-6.36V55.3Z" style="fill: #003c8b"/>
          <path d="M109.42,55.3V35.61h4.33v15.9h8.61V55.3Z" style="fill: #003c8b"/>
          <path d="M129.41,55.3l8.11-19.69H140l8.12,19.69h-2.77l-2.21-5.5h-8.85l-2.23,5.5Zm7.36-11.75-1.6,4h7.07l-1.6-4.07q-1.12-2.82-1.87-4.86h-.06Q138.16,40.13,136.77,43.55Z" style="fill: #003c8b"/>
          <path d="M150.39,55.3V41.92h2.45V43.6l0,0A7.05,7.05,0,0,1,155,42.17a6.23,6.23,0,0,1,2.56-.55,4.5,4.5,0,0,1,3.57,1.46,4.36,4.36,0,0,1,.84,1.56,8.54,8.54,0,0,1,.28,2.39V55.3h-2.46V47.49a4.41,4.41,0,0,0-.62-2.72,2.64,2.64,0,0,0-2.14-.86,4.84,4.84,0,0,0-2.3.63,5.6,5.6,0,0,0-1.89,1.6V55.3Z" style="fill: #003c8b"/>
          <path d="M166.49,38.54a1.71,1.71,0,1,1,1.21.5A1.63,1.63,0,0,1,166.49,38.54Zm0,16.76V41.92h2.44V55.3Z" style="fill: #003c8b"/>
          <path d="M183.53,52.06v2.61a8.17,8.17,0,0,1-4,.93,7.22,7.22,0,0,1-5.21-2,6.56,6.56,0,0,1-2.05-5,7,7,0,0,1,1-3.65,6.84,6.84,0,0,1,2.68-2.52,7.91,7.91,0,0,1,3.76-.9,7.78,7.78,0,0,1,3.62.84V45a6.88,6.88,0,0,0-3.73-1.15,4.66,4.66,0,0,0-3.48,1.39,4.75,4.75,0,0,0-1.35,3.45,4.48,4.48,0,0,0,1.37,3.37,5,5,0,0,0,3.54,1.31A6.17,6.17,0,0,0,183.53,52.06Z" style="fill: #003c8b"/>
          <path d="M187.06,55.3V34.52h2.45V43.6l.05,0a7.1,7.1,0,0,1,2.12-1.46,6.15,6.15,0,0,1,2.55-.55,4.24,4.24,0,0,1,4.42,3,8.59,8.59,0,0,1,.27,2.39V55.3h-2.46V47.49a8.38,8.38,0,0,0-.14-1.72,2.32,2.32,0,0,0-.51-1,2.54,2.54,0,0,0-2-.86,4.83,4.83,0,0,0-2.33.63,6.33,6.33,0,0,0-1.94,1.6V55.3Z" style="fill: #003c8b"/>
          <path d="M202.79,54.54V52A9.18,9.18,0,0,0,205.25,53a9.7,9.7,0,0,0,2.63.37,4.65,4.65,0,0,0,2.24-.46,1.51,1.51,0,0,0,.81-1.4,1.55,1.55,0,0,0-.1-.59,1.06,1.06,0,0,0-.35-.45,3.66,3.66,0,0,0-.47-.3,3,3,0,0,0-.65-.22c-.29-.07-.53-.12-.73-.15l-.85-.14-.86-.13c-.57-.1-1.06-.2-1.47-.31a7.44,7.44,0,0,1-1.24-.46,3.63,3.63,0,0,1-1-.7,3.05,3.05,0,0,1-.63-1,3.62,3.62,0,0,1-.24-1.36,3.68,3.68,0,0,1,.75-2.29,4.35,4.35,0,0,1,2-1.38,8.25,8.25,0,0,1,2.79-.44,12.25,12.25,0,0,1,2.53.28,8.34,8.34,0,0,1,2.26.79v2.44a8.88,8.88,0,0,0-2.39-1,10.19,10.19,0,0,0-2.51-.33,4.51,4.51,0,0,0-2.12.42,1.49,1.49,0,0,0-.68,1.85.89.89,0,0,0,.33.42,3.78,3.78,0,0,0,.46.28,2.81,2.81,0,0,0,.64.21l.7.14.82.13.84.13c.57.1,1.06.2,1.48.31a7.66,7.66,0,0,1,1.26.45,3.72,3.72,0,0,1,1,.7,3.25,3.25,0,0,1,.65,1,4.3,4.3,0,0,1-.22,3.4,3.66,3.66,0,0,1-1.28,1.34,6.3,6.3,0,0,1-1.79.73,8.74,8.74,0,0,1-2.09.24A10.83,10.83,0,0,1,202.79,54.54Z" style="fill: #003c8b"/>
          <path d="M218.73,54.34a5.51,5.51,0,0,1-1-3.69V44.12h-2.48v-2.2h2.48V38.28l2.44-.41v4.05h4v2.2h-4v6.07a8.34,8.34,0,0,0,.07,1.2,3.81,3.81,0,0,0,.26,1,1.47,1.47,0,0,0,.62.74,2,2,0,0,0,1.05.25,3.64,3.64,0,0,0,2-.57v2.31a5.43,5.43,0,0,1-2.41.49A3.85,3.85,0,0,1,218.73,54.34Z" style="fill: #003c8b"/>
          <path d="M227.27,55.3V41.92h2.44v2l0,0a5,5,0,0,1,1.75-1.54,4.63,4.63,0,0,1,2.22-.56,3.6,3.6,0,0,1,.88.11v2.43a4.07,4.07,0,0,0-1-.12,4.32,4.32,0,0,0-3.94,2.37v8.7Z" style="fill: #003c8b"/>
          <path d="M240.46,55.6a5.19,5.19,0,0,1-3.17-1,3.46,3.46,0,0,1-1.42-3,3.65,3.65,0,0,1,1.76-3.27,6.86,6.86,0,0,1,3.76-.9,12,12,0,0,1,2.85.36V46.76a2.92,2.92,0,0,0-.75-2.2,3.61,3.61,0,0,0-2.49-.73,6.79,6.79,0,0,0-4.1,1.33V42.77a8.53,8.53,0,0,1,4.46-1.15,5.72,5.72,0,0,1,4,1.23,4.47,4.47,0,0,1,1.33,3.5V52a1.88,1.88,0,0,0,.25,1,.91.91,0,0,0,.78.38,1.82,1.82,0,0,0,.8-.2v2a3.52,3.52,0,0,1-1.32.23,3.2,3.2,0,0,1-1.51-.35,2.5,2.5,0,0,1-1.06-1h0a5.42,5.42,0,0,1-1.76,1A6.23,6.23,0,0,1,240.46,55.6Zm.44-2.18a5.2,5.2,0,0,0,1.81-.32,5.32,5.32,0,0,0,1.53-.84V49.75a9.26,9.26,0,0,0-2.61-.35,5,5,0,0,0-2.35.49,1.63,1.63,0,0,0-.93,1.57,1.68,1.68,0,0,0,.71,1.45A3.08,3.08,0,0,0,240.9,53.42Z" style="fill: #003c8b"/>
          <path d="M251.22,55.3V39.63a5.1,5.1,0,0,1,1.56-4.07,6.42,6.42,0,0,1,4.36-1.33,6.92,6.92,0,0,1,4.44,1.28,4.56,4.56,0,0,1,1.55,3.75,7.72,7.72,0,0,1-.52,2.88,10.37,10.37,0,0,0-2.85.6,3.26,3.26,0,0,0-1.31.78,1.87,1.87,0,0,0-.36,1.54,1.5,1.5,0,0,0,.09.32.73.73,0,0,0,.19.29c.08.1.16.18.21.25a.89.89,0,0,0,.3.22l.32.18a2.57,2.57,0,0,0,.4.19l.42.17.5.19.51.18q.69.26,1.17.48a7.78,7.78,0,0,1,1,.6,4,4,0,0,1,.91.79,4.34,4.34,0,0,1,.57,1,4.08,4.08,0,0,1,.23,1.38,3.76,3.76,0,0,1-1.42,3.14A5.64,5.64,0,0,1,260,55.6a9.38,9.38,0,0,1-2.28-.29,6.8,6.8,0,0,1-1.85-.72V52A7.71,7.71,0,0,0,260,53.4a3,3,0,0,0,1.76-.5,1.68,1.68,0,0,0,.7-1.47,1.64,1.64,0,0,0-.15-.71,1.78,1.78,0,0,0-.37-.53,2.48,2.48,0,0,0-.71-.46,6.94,6.94,0,0,0-.89-.39l-1.2-.43a6.88,6.88,0,0,1-2.65-1.55,3.4,3.4,0,0,1-.9-2.47,3.8,3.8,0,0,1,1.95-3.42,7.81,7.81,0,0,1,3-1.09,6.71,6.71,0,0,0,.11-1.12,2.59,2.59,0,0,0-.87-2.09,4,4,0,0,0-2.64-.71,3.83,3.83,0,0,0-2.65.76,3.09,3.09,0,0,0-.85,2.41V55.3Z" style="fill: #003c8b"/>
          <path d="M279.92,49.31H269.69a4.43,4.43,0,0,0,1.6,3,5.19,5.19,0,0,0,3.35,1.07,7.53,7.53,0,0,0,4.62-1.66v2.6a8,8,0,0,1-2.2.92,9.94,9.94,0,0,1-2.58.34,7.23,7.23,0,0,1-5.18-1.94,6.62,6.62,0,0,1-2.06-5,7.17,7.17,0,0,1,.93-3.66,6.34,6.34,0,0,1,2.43-2.47,6.62,6.62,0,0,1,3.31-.86,6.39,6.39,0,0,1,3,.73,5.54,5.54,0,0,1,2.22,2.23,6.91,6.91,0,0,1,.85,3.51A8.19,8.19,0,0,1,279.92,49.31Zm-6.06-5.48a4.18,4.18,0,0,0-2.63.91,4.12,4.12,0,0,0-1.48,2.64h7.87a4.51,4.51,0,0,0-.44-1.67,2.92,2.92,0,0,0-.92-1.11A4.1,4.1,0,0,0,275.1,44,4.38,4.38,0,0,0,273.86,43.83Z" style="fill: #003c8b"/>
        </g>
        <rect x="12.35" y="32.65" width="10.6" height="10.6" transform="translate(-21.67 23.6) rotate(-45)" style="fill: #ecbf3e"/>
        <rect x="22.5" y="22.5" width="10.6" height="10.6" transform="translate(-11.52 27.8) rotate(-45)" style="fill: #657aba"/>
        <rect x="32.65" y="12.35" width="10.6" height="10.6" transform="translate(-1.36 32.01) rotate(-45)" style="fill: #ec6f4f"/>
        <rect x="2.2" y="22.5" width="10.6" height="10.6" transform="translate(-17.46 13.44) rotate(-45)" style="fill: #5d5c5c"/>
        <rect x="12.35" y="12.35" width="10.6" height="10.6" transform="translate(-7.31 17.65) rotate(-45)" style="fill: #a7c56f"/>
        <rect x="22.5" y="2.2" width="10.6" height="10.6" transform="translate(2.84 21.85) rotate(-45)" style="fill: #c56591"/>
        <rect x="22.5" y="42.8" width="10.6" height="10.6" transform="translate(-25.87 33.75) rotate(-45)" style="fill: #5d5c5c"/>
        <rect x="32.65" y="32.65" width="10.6" height="10.6" transform="translate(-15.72 37.95) rotate(-45)" style="fill: #5d5c5c"/>
        <rect x="42.8" y="22.5" width="10.6" height="10.6" transform="translate(-5.57 42.16) rotate(-45)" style="fill: #5d5c5c"/>
      </g>
    </g>
  </g>
</svg>
